<svg width="514" height="579" viewBox="0 0 514 579" fill="none" xmlns="http://www.w3.org/2000/svg">
<rect x="96" width="10" height="521" fill="#276141"/>
<rect x="408" width="10" height="521" fill="#276141"/>
<path d="M46.5 0.5H105.5V52.4823H46.5V0.5ZM48.4526 53.4823H103.636L80.3666 63.7854C77.9613 64.8504 75.2221 64.8704 72.8015 63.8407L48.4526 53.4823Z" fill="#276141" stroke="#276141"/>
<path d="M106 0H166V52.9823H106V0Z" fill="#EABF43"/>
<path d="M166 52.9823H106L132.606 64.3008C135.154 65.3847 138.037 65.3637 140.569 64.2426L166 52.9823Z" fill="#EABF43"/>
<path d="M166.5 0.5H225.5V52.4823H166.5V0.5ZM168.453 53.4823H223.636L200.367 63.7854C197.961 64.8504 195.222 64.8704 192.802 63.8407L168.453 53.4823Z" fill="#276141" stroke="#276141"/>
<path d="M226 0H286V52.9823H226V0Z" fill="#EABF43"/>
<path d="M286 52.9823H226L252.606 64.3008C255.154 65.3847 258.037 65.3637 260.569 64.2426L286 52.9823Z" fill="#EABF43"/>
<path d="M346 0H406V52.9823H346V0Z" fill="#EABF43"/>
<path d="M406 52.9823H346L372.606 64.3008C375.154 65.3847 378.037 65.3637 380.569 64.2426L406 52.9823Z" fill="#EABF43"/>
<path d="M286 0H346V52.9823H286V0Z" fill="#276141"/>
<path d="M346 52.9823H286L312.606 64.3008C315.154 65.3847 318.037 65.3637 320.569 64.2426L346 52.9823Z" fill="#276141"/>
<path d="M406.5 0.5H465.5V52.4823H406.5V0.5ZM408.453 53.4823H463.636L440.367 63.7854C437.961 64.8504 435.222 64.8704 432.801 63.8407L408.453 53.4823Z" fill="#276141" stroke="#276141"/>
<rect width="514" height="15" rx="7.5" fill="#1F4E35"/>
<path d="M46.5 529.5H105.5V578.5H66C55.2304 578.5 46.5 569.77 46.5 559V529.5Z" fill="#276141" stroke="#276141"/>
<path d="M406.5 529.5H465.5V559C465.5 569.77 456.77 578.5 446 578.5H406.5V529.5Z" fill="#276141" stroke="#276141"/>
<rect x="166.5" y="529.5" width="59" height="49" fill="#276141" stroke="#276141"/>
<rect x="286.5" y="529.5" width="59" height="49" fill="#276141" stroke="#276141"/>
<rect x="106" y="529" width="60" height="50" fill="#EABF43"/>
<rect x="226" y="529" width="60" height="50" fill="#EABF43"/>
<rect x="346" y="529" width="60" height="50" fill="#EABF43"/>
<rect y="521" width="514" height="15" rx="7.5" fill="#1F4E35"/>
</svg>
