<svg width="514" height="579" viewBox="0 0 514 579" fill="none" xmlns="http://www.w3.org/2000/svg">
<rect x="96" width="10" height="521" fill="#437587"/>
<rect x="408" width="10" height="521" fill="#437587"/>
<path d="M46 0H106V52.9823H46V0Z" fill="#437587"/>
<path d="M106 52.9823H46L72.6057 64.3008C75.1537 65.3847 78.0371 65.3637 80.569 64.2426L106 52.9823Z" fill="#437587"/>
<path d="M106 0H166V52.9823H106V0Z" fill="#EABF43"/>
<path d="M166 52.9823H106L132.606 64.3008C135.154 65.3847 138.037 65.3637 140.569 64.2426L166 52.9823Z" fill="#EABF43"/>
<path d="M166 0H226V52.9823H166V0Z" fill="#437587"/>
<path d="M226 52.9823H166L192.606 64.3008C195.154 65.3847 198.037 65.3637 200.569 64.2426L226 52.9823Z" fill="#437587"/>
<path d="M226 0H286V52.9823H226V0Z" fill="#EABF43"/>
<path d="M286 52.9823H226L252.606 64.3008C255.154 65.3847 258.037 65.3637 260.569 64.2426L286 52.9823Z" fill="#EABF43"/>
<path d="M346 0H406V52.9823H346V0Z" fill="#EABF43"/>
<path d="M406 52.9823H346L372.606 64.3008C375.154 65.3847 378.037 65.3637 380.569 64.2426L406 52.9823Z" fill="#EABF43"/>
<path d="M286 0H346V52.9823H286V0Z" fill="#437587"/>
<path d="M346 52.9823H286L312.606 64.3008C315.154 65.3847 318.037 65.3637 320.569 64.2426L346 52.9823Z" fill="#437587"/>
<path d="M406 0H466V52.9823H406V0Z" fill="#437587"/>
<path d="M466 52.9823H406L432.606 64.3008C435.154 65.3847 438.037 65.3637 440.569 64.2426L466 52.9823Z" fill="#437587"/>
<rect width="514" height="15" rx="7.5" fill="#366170"/>
<path d="M46 529H106V579H66C54.9543 579 46 570.046 46 559V529Z" fill="#437587"/>
<path d="M406 529H466V559C466 570.046 457.046 579 446 579H406V529Z" fill="#437587"/>
<rect x="166" y="529" width="60" height="50" fill="#437587"/>
<rect x="286" y="529" width="60" height="50" fill="#437587"/>
<rect x="106" y="529" width="60" height="50" fill="#EABF43"/>
<rect x="226" y="529" width="60" height="50" fill="#EABF43"/>
<rect x="346" y="529" width="60" height="50" fill="#EABF43"/>
<rect y="521" width="514" height="15" rx="7.5" fill="#366170"/>
</svg>
