<svg xmlns="http://www.w3.org/2000/svg" xmlns:xlink="http://www.w3.org/1999/xlink" width="1920" zoomAndPan="magnify" viewBox="0 0 1440 809.999993" height="1080" preserveAspectRatio="xMidYMid meet" version="1.0"><path fill="#754c24" d="M 990.332031 429.765625 C 987.671875 429.210938 985.957031 426.660156 986.398438 424 L 1000.746094 317.710938 L 1023.511719 322.589844 L 996.257812 426.105469 C 995.59375 428.710938 992.933594 430.320312 990.332031 429.765625 Z M 990.332031 429.765625 " fill-opacity="1" fill-rule="nonzero"/><path fill="#603813" d="M 997.308594 343.371094 L 1017.75 344.867188 L 1023.511719 322.589844 L 1000.746094 317.710938 Z M 997.308594 343.371094 " fill-opacity="1" fill-rule="nonzero"/><path fill="#603813" d="M 1026.335938 389.644531 C 1023.675781 389.089844 1021.960938 386.539062 1022.402344 383.878906 L 1036.75 277.589844 L 1059.515625 282.46875 L 1032.261719 385.984375 C 1031.597656 388.589844 1028.9375 390.199219 1026.335938 389.644531 Z M 1026.335938 389.644531 " fill-opacity="1" fill-rule="nonzero"/><path fill="#754c24" d="M 1218.375 429.765625 C 1221.035156 429.210938 1222.75 426.660156 1222.308594 424 L 1207.960938 317.710938 L 1185.195312 322.589844 L 1212.449219 426.105469 C 1213.113281 428.710938 1215.714844 430.320312 1218.375 429.765625 Z M 1218.375 429.765625 " fill-opacity="1" fill-rule="nonzero"/><path fill="#603813" d="M 1211.394531 343.371094 L 1190.957031 344.867188 L 1185.140625 322.589844 L 1207.90625 317.710938 Z M 1211.394531 343.371094 " fill-opacity="1" fill-rule="nonzero"/><path fill="#603813" d="M 1182.371094 389.644531 C 1185.03125 389.089844 1186.746094 386.539062 1186.304688 383.878906 L 1171.957031 277.589844 L 1149.191406 282.46875 L 1176.445312 385.984375 C 1177.109375 388.589844 1179.710938 390.199219 1182.371094 389.644531 Z M 1182.371094 389.644531 " fill-opacity="1" fill-rule="nonzero"/><path fill="#603813" d="M 1234.605469 325.859375 C 1233.9375 329.738281 1230.835938 332.730469 1226.90625 333.230469 C 1212.78125 335.003906 1174.726562 338.714844 1105.320312 338.714844 C 1036.027344 338.714844 997.976562 335.003906 983.796875 333.230469 C 979.863281 332.730469 976.707031 329.738281 976.097656 325.804688 C 974.210938 314.441406 970.890625 288.007812 970.890625 245.0625 C 970.890625 202.058594 974.210938 175.625 976.097656 164.320312 C 976.761719 160.441406 979.863281 157.394531 983.796875 156.894531 C 997.585938 155.121094 1034.367188 151.40625 1102.773438 151.40625 C 1172.34375 151.40625 1212.226562 155.230469 1226.90625 156.949219 C 1230.835938 157.394531 1233.996094 160.441406 1234.660156 164.320312 C 1236.542969 175.402344 1239.8125 201.0625 1239.8125 245.007812 C 1239.753906 289.171875 1236.488281 314.832031 1234.605469 325.859375 Z M 1234.605469 325.859375 " fill-opacity="1" fill-rule="nonzero"/><path fill="#a67c52" d="M 1242.636719 297.207031 C 1241.914062 301.363281 1238.59375 304.523438 1234.4375 305.023438 C 1219.480469 306.90625 1179.046875 310.839844 1105.320312 310.839844 C 1031.707031 310.839844 991.328125 306.90625 976.261719 305.023438 C 972.109375 304.523438 968.785156 301.308594 968.0625 297.152344 C 966.070312 285.074219 962.523438 257.03125 962.523438 211.425781 C 962.523438 179.117188 966.679688 155.5625 968.453125 140.324219 C 969.171875 134.0625 983.1875 118.601562 989.832031 117.769531 C 1004.511719 115.941406 1029.9375 111.953125 1102.550781 111.953125 C 1176.445312 111.953125 1205.191406 115.996094 1220.757812 117.824219 C 1228.675781 118.769531 1241.859375 134.007812 1242.582031 140.269531 C 1244.296875 155.230469 1248.0625 178.453125 1248.0625 211.367188 C 1248.0625 258.25 1244.628906 285.515625 1242.636719 297.207031 Z M 1242.636719 297.207031 " fill-opacity="1" fill-rule="nonzero"/><path fill="#c69c6d" d="M 1242.636719 314.222656 C 1241.914062 318.378906 1238.59375 321.535156 1234.4375 322.035156 C 1219.480469 323.917969 1179.046875 327.855469 1105.320312 327.855469 C 1031.707031 327.855469 991.328125 323.917969 976.261719 322.035156 C 972.109375 321.535156 968.785156 318.324219 968.0625 314.167969 C 966.070312 302.085938 962.523438 274.042969 962.523438 228.4375 C 962.523438 182.773438 966.070312 154.734375 968.0625 142.652344 C 968.730469 138.496094 972.050781 135.335938 976.207031 134.78125 C 990.886719 132.898438 1029.9375 128.964844 1102.550781 128.964844 C 1176.445312 128.964844 1218.816406 133.011719 1234.328125 134.839844 C 1238.480469 135.335938 1241.859375 138.550781 1242.582031 142.707031 C 1244.574219 154.457031 1248.007812 181.722656 1248.007812 228.4375 C 1248.0625 275.265625 1244.628906 302.527344 1242.636719 314.222656 Z M 1242.636719 314.222656 " fill-opacity="1" fill-rule="nonzero"/><path fill="#a67c52" d="M 1226.960938 304.46875 C 1226.351562 308.125 1223.414062 310.953125 1219.703125 311.394531 C 1206.410156 313.058594 1170.628906 316.550781 1105.320312 316.550781 C 1040.128906 316.550781 1004.289062 313.058594 990.996094 311.394531 C 987.285156 310.953125 984.347656 308.070312 983.738281 304.414062 C 981.96875 293.71875 978.867188 268.835938 978.867188 228.492188 C 978.867188 188.039062 982.023438 163.210938 983.738281 152.515625 C 984.347656 148.859375 987.285156 146.03125 990.941406 145.535156 C 1003.902344 143.871094 1038.519531 140.378906 1102.886719 140.378906 C 1168.300781 140.378906 1205.855469 143.980469 1219.648438 145.589844 C 1223.359375 146.03125 1226.296875 148.859375 1226.960938 152.515625 C 1228.734375 162.933594 1231.777344 187.039062 1231.777344 228.4375 C 1231.777344 269.945312 1228.734375 294.050781 1226.960938 304.46875 Z M 1226.960938 304.46875 " fill-opacity="1" fill-rule="nonzero"/><path fill="#754c24" d="M 1158.386719 289.5625 C 1157.222656 295.378906 1152.625 299.925781 1146.753906 300.921875 C 1134.070312 303.027344 1108.921875 305.300781 1074.800781 305.300781 C 1040.792969 305.300781 1015.699219 303.082031 1002.960938 300.921875 C 997.089844 299.925781 992.378906 295.378906 991.273438 289.5625 C 989.167969 278.644531 986.289062 258.25 986.289062 228.050781 C 986.289062 197.679688 989.167969 177.289062 991.273438 166.425781 C 992.378906 160.605469 996.976562 156.117188 1002.847656 155.066406 C 1014.925781 152.960938 1038.796875 150.855469 1074.746094 150.855469 C 1110.804688 150.855469 1134.679688 152.960938 1146.753906 155.066406 C 1152.570312 156.0625 1157.167969 160.550781 1158.277344 166.316406 C 1160.378906 176.957031 1163.207031 196.960938 1163.207031 228.050781 C 1163.261719 258.972656 1160.492188 278.921875 1158.386719 289.5625 Z M 1158.386719 289.5625 " fill-opacity="1" fill-rule="nonzero"/><path fill="#754c24" d="M 1219.980469 241.847656 C 1219.980469 242.625 1219.371094 243.234375 1218.597656 243.234375 L 1177.828125 243.234375 C 1177.054688 243.234375 1176.445312 242.625 1176.445312 241.847656 C 1176.445312 241.070312 1177.054688 240.460938 1177.828125 240.460938 L 1218.597656 240.460938 C 1219.371094 240.460938 1219.980469 241.070312 1219.980469 241.847656 Z M 1219.980469 241.847656 " fill-opacity="1" fill-rule="nonzero"/><path fill="#754c24" d="M 1219.980469 248.996094 C 1219.980469 249.773438 1219.371094 250.382812 1218.597656 250.382812 L 1177.828125 250.382812 C 1177.054688 250.382812 1176.445312 249.773438 1176.445312 248.996094 C 1176.445312 248.21875 1177.054688 247.609375 1177.828125 247.609375 L 1218.597656 247.609375 C 1219.371094 247.609375 1219.980469 248.21875 1219.980469 248.996094 Z M 1219.980469 248.996094 " fill-opacity="1" fill-rule="nonzero"/><path fill="#754c24" d="M 1219.980469 256.144531 C 1219.980469 256.921875 1219.371094 257.53125 1218.597656 257.53125 L 1177.828125 257.53125 C 1177.054688 257.53125 1176.445312 256.921875 1176.445312 256.144531 C 1176.445312 255.371094 1177.054688 254.757812 1177.828125 254.757812 L 1218.597656 254.757812 C 1219.371094 254.757812 1219.980469 255.371094 1219.980469 256.144531 Z M 1219.980469 256.144531 " fill-opacity="1" fill-rule="nonzero"/><path fill="#754c24" d="M 1219.980469 263.292969 C 1219.980469 264.070312 1219.371094 264.679688 1218.597656 264.679688 L 1177.828125 264.679688 C 1177.054688 264.679688 1176.445312 264.070312 1176.445312 263.292969 C 1176.445312 262.519531 1177.054688 261.910156 1177.828125 261.910156 L 1218.597656 261.910156 C 1219.371094 261.910156 1219.980469 262.519531 1219.980469 263.292969 Z M 1219.980469 263.292969 " fill-opacity="1" fill-rule="nonzero"/><path fill="#754c24" d="M 1219.980469 270.386719 C 1219.980469 271.164062 1219.371094 271.773438 1218.597656 271.773438 L 1177.828125 271.773438 C 1177.054688 271.773438 1176.445312 271.164062 1176.445312 270.386719 C 1176.445312 269.609375 1177.054688 269 1177.828125 269 L 1218.597656 269 C 1219.371094 269.058594 1219.980469 269.667969 1219.980469 270.386719 Z M 1219.980469 270.386719 " fill-opacity="1" fill-rule="nonzero"/><path fill="#754c24" d="M 1219.980469 277.535156 C 1219.980469 278.3125 1219.371094 278.921875 1218.597656 278.921875 L 1177.828125 278.921875 C 1177.054688 278.921875 1176.445312 278.3125 1176.445312 277.535156 C 1176.445312 276.761719 1177.054688 276.152344 1177.828125 276.152344 L 1218.597656 276.152344 C 1219.371094 276.207031 1219.980469 276.816406 1219.980469 277.535156 Z M 1219.980469 277.535156 " fill-opacity="1" fill-rule="nonzero"/><path fill="#754c24" d="M 1219.980469 284.683594 C 1219.980469 285.460938 1219.371094 286.070312 1218.597656 286.070312 L 1177.828125 286.070312 C 1177.054688 286.070312 1176.445312 285.460938 1176.445312 284.683594 C 1176.445312 283.910156 1177.054688 283.300781 1177.828125 283.300781 L 1218.597656 283.300781 C 1219.371094 283.355469 1219.980469 283.964844 1219.980469 284.683594 Z M 1219.980469 284.683594 " fill-opacity="1" fill-rule="nonzero"/><path fill="#754c24" d="M 1219.980469 291.832031 C 1219.980469 292.609375 1219.371094 293.21875 1218.597656 293.21875 L 1177.828125 293.21875 C 1177.054688 293.21875 1176.445312 292.609375 1176.445312 291.832031 C 1176.445312 291.058594 1177.054688 290.449219 1177.828125 290.449219 L 1218.597656 290.449219 C 1219.371094 290.449219 1219.980469 291.058594 1219.980469 291.832031 Z M 1219.980469 291.832031 " fill-opacity="1" fill-rule="nonzero"/><path stroke-linecap="butt" transform="matrix(0.553906, 0, 0, 0.554164, 589.857097, -62.665422)" fill="none" stroke-linejoin="miter" d="M 821.097282 124.302856 L 931.499267 324.202774 L 1039.799701 124.302856 " stroke="#754c24" stroke-width="4.909" stroke-opacity="1" stroke-miterlimit="10"/><path fill="#333333" d="M 1106.429688 102.640625 C 1098.289062 102.640625 1091.640625 109.234375 1091.640625 117.4375 C 1091.640625 117.714844 1091.640625 117.992188 1091.640625 118.269531 C 1095.851562 119.765625 1101.167969 120.652344 1106.929688 120.652344 C 1112.191406 120.652344 1117.066406 119.929688 1121.109375 118.65625 C 1121.164062 118.269531 1121.164062 117.824219 1121.164062 117.4375 C 1121.21875 109.234375 1114.574219 102.640625 1106.429688 102.640625 Z M 1106.429688 102.640625 " fill-opacity="1" fill-rule="nonzero"/><path fill="#603813" d="M 1211.394531 178.507812 C 1211.394531 179.457031 1211.300781 180.398438 1211.117188 181.328125 C 1210.933594 182.261719 1210.65625 183.164062 1210.292969 184.042969 C 1209.929688 184.917969 1209.484375 185.753906 1208.957031 186.542969 C 1208.429688 187.332031 1207.832031 188.0625 1207.160156 188.734375 C 1206.488281 189.40625 1205.757812 190.003906 1204.96875 190.53125 C 1204.179688 191.058594 1203.347656 191.507812 1202.46875 191.871094 C 1201.59375 192.234375 1200.691406 192.507812 1199.757812 192.691406 C 1198.828125 192.878906 1197.886719 192.96875 1196.9375 192.96875 C 1195.988281 192.96875 1195.050781 192.878906 1194.117188 192.691406 C 1193.1875 192.507812 1192.28125 192.234375 1191.40625 191.871094 C 1190.527344 191.507812 1189.695312 191.058594 1188.90625 190.53125 C 1188.117188 190.003906 1187.386719 189.40625 1186.714844 188.734375 C 1186.042969 188.0625 1185.445312 187.332031 1184.917969 186.542969 C 1184.390625 185.753906 1183.945312 184.917969 1183.582031 184.042969 C 1183.21875 183.164062 1182.945312 182.261719 1182.757812 181.328125 C 1182.574219 180.398438 1182.480469 179.457031 1182.480469 178.507812 C 1182.480469 177.558594 1182.574219 176.617188 1182.757812 175.683594 C 1182.945312 174.753906 1183.21875 173.847656 1183.582031 172.972656 C 1183.945312 172.09375 1184.390625 171.261719 1184.917969 170.472656 C 1185.445312 169.679688 1186.042969 168.949219 1186.714844 168.28125 C 1187.386719 167.609375 1188.117188 167.007812 1188.90625 166.480469 C 1189.695312 165.953125 1190.527344 165.507812 1191.40625 165.144531 C 1192.28125 164.78125 1193.1875 164.507812 1194.117188 164.320312 C 1195.050781 164.136719 1195.988281 164.042969 1196.9375 164.042969 C 1197.886719 164.042969 1198.828125 164.136719 1199.757812 164.320312 C 1200.691406 164.507812 1201.59375 164.78125 1202.46875 165.144531 C 1203.347656 165.507812 1204.179688 165.953125 1204.96875 166.480469 C 1205.757812 167.007812 1206.488281 167.609375 1207.160156 168.28125 C 1207.832031 168.949219 1208.429688 169.679688 1208.957031 170.472656 C 1209.484375 171.261719 1209.929688 172.09375 1210.292969 172.972656 C 1210.65625 173.847656 1210.933594 174.753906 1211.117188 175.683594 C 1211.300781 176.617188 1211.394531 177.558594 1211.394531 178.507812 Z M 1211.394531 178.507812 " fill-opacity="1" fill-rule="nonzero"/><path fill="#754c24" d="M 1211.394531 175.125 C 1211.394531 176.074219 1211.300781 177.015625 1211.117188 177.949219 C 1210.933594 178.878906 1210.65625 179.785156 1210.292969 180.660156 C 1209.929688 181.539062 1209.484375 182.371094 1208.957031 183.160156 C 1208.429688 183.953125 1207.832031 184.683594 1207.160156 185.355469 C 1206.488281 186.023438 1205.757812 186.625 1204.96875 187.152344 C 1204.179688 187.679688 1203.347656 188.125 1202.46875 188.488281 C 1201.59375 188.851562 1200.691406 189.125 1199.757812 189.3125 C 1198.828125 189.496094 1197.886719 189.589844 1196.9375 189.589844 C 1195.988281 189.589844 1195.050781 189.496094 1194.117188 189.3125 C 1193.1875 189.125 1192.28125 188.851562 1191.40625 188.488281 C 1190.527344 188.125 1189.695312 187.679688 1188.90625 187.152344 C 1188.117188 186.625 1187.386719 186.023438 1186.714844 185.355469 C 1186.042969 184.683594 1185.445312 183.953125 1184.917969 183.160156 C 1184.390625 182.371094 1183.945312 181.539062 1183.582031 180.660156 C 1183.21875 179.785156 1182.945312 178.878906 1182.757812 177.949219 C 1182.574219 177.015625 1182.480469 176.074219 1182.480469 175.125 C 1182.480469 174.175781 1182.574219 173.234375 1182.757812 172.304688 C 1182.945312 171.375 1183.21875 170.46875 1183.582031 169.589844 C 1183.945312 168.714844 1184.390625 167.878906 1184.917969 167.089844 C 1185.445312 166.300781 1186.042969 165.570312 1186.714844 164.898438 C 1187.386719 164.226562 1188.117188 163.628906 1188.90625 163.101562 C 1189.695312 162.574219 1190.527344 162.128906 1191.40625 161.761719 C 1192.28125 161.398438 1193.1875 161.125 1194.117188 160.941406 C 1195.050781 160.753906 1195.988281 160.664062 1196.9375 160.664062 C 1197.886719 160.664062 1198.828125 160.753906 1199.757812 160.941406 C 1200.691406 161.125 1201.59375 161.398438 1202.46875 161.761719 C 1203.347656 162.128906 1204.179688 162.574219 1204.96875 163.101562 C 1205.757812 163.628906 1206.488281 164.226562 1207.160156 164.898438 C 1207.832031 165.570312 1208.429688 166.300781 1208.957031 167.089844 C 1209.484375 167.878906 1209.929688 168.714844 1210.292969 169.589844 C 1210.65625 170.46875 1210.933594 171.375 1211.117188 172.304688 C 1211.300781 173.234375 1211.394531 174.175781 1211.394531 175.125 Z M 1211.394531 175.125 " fill-opacity="1" fill-rule="nonzero"/><path fill="#603813" d="M 1208.128906 175.125 C 1208.128906 175.863281 1208.054688 176.589844 1207.914062 177.308594 C 1207.769531 178.03125 1207.558594 178.730469 1207.277344 179.410156 C 1206.996094 180.089844 1206.648438 180.734375 1206.242188 181.34375 C 1205.832031 181.957031 1205.371094 182.523438 1204.851562 183.042969 C 1204.332031 183.5625 1203.765625 184.027344 1203.15625 184.433594 C 1202.542969 184.84375 1201.898438 185.1875 1201.21875 185.46875 C 1200.542969 185.75 1199.839844 185.960938 1199.121094 186.105469 C 1198.402344 186.25 1197.671875 186.320312 1196.9375 186.320312 C 1196.203125 186.320312 1195.476562 186.25 1194.753906 186.105469 C 1194.035156 185.960938 1193.335938 185.75 1192.65625 185.46875 C 1191.976562 185.1875 1191.332031 184.84375 1190.722656 184.433594 C 1190.109375 184.027344 1189.546875 183.5625 1189.027344 183.042969 C 1188.507812 182.523438 1188.042969 181.957031 1187.636719 181.34375 C 1187.226562 180.734375 1186.882812 180.089844 1186.601562 179.410156 C 1186.320312 178.730469 1186.109375 178.03125 1185.964844 177.308594 C 1185.820312 176.589844 1185.75 175.863281 1185.75 175.125 C 1185.75 174.390625 1185.820312 173.664062 1185.964844 172.941406 C 1186.109375 172.222656 1186.320312 171.523438 1186.601562 170.84375 C 1186.882812 170.164062 1187.226562 169.519531 1187.636719 168.90625 C 1188.042969 168.296875 1188.507812 167.730469 1189.027344 167.210938 C 1189.546875 166.691406 1190.109375 166.226562 1190.722656 165.820312 C 1191.332031 165.410156 1191.976562 165.066406 1192.65625 164.785156 C 1193.335938 164.503906 1194.035156 164.289062 1194.753906 164.148438 C 1195.476562 164.003906 1196.203125 163.933594 1196.9375 163.933594 C 1197.671875 163.933594 1198.402344 164.003906 1199.121094 164.148438 C 1199.839844 164.289062 1200.542969 164.503906 1201.21875 164.785156 C 1201.898438 165.066406 1202.542969 165.410156 1203.15625 165.820312 C 1203.765625 166.226562 1204.332031 166.691406 1204.851562 167.210938 C 1205.371094 167.730469 1205.832031 168.296875 1206.242188 168.90625 C 1206.648438 169.519531 1206.996094 170.164062 1207.277344 170.84375 C 1207.558594 171.523438 1207.769531 172.222656 1207.914062 172.941406 C 1208.054688 173.664062 1208.128906 174.390625 1208.128906 175.125 Z M 1208.128906 175.125 " fill-opacity="1" fill-rule="nonzero"/><path fill="#754c24" d="M 1199.265625 184.714844 C 1199.265625 186.042969 1198.210938 187.097656 1196.882812 187.097656 C 1195.554688 187.097656 1194.5 186.042969 1194.5 184.714844 L 1194.5 165.316406 C 1194.5 163.988281 1195.554688 162.933594 1196.882812 162.933594 C 1198.210938 162.933594 1199.265625 163.988281 1199.265625 165.316406 Z M 1199.265625 184.714844 " fill-opacity="1" fill-rule="nonzero"/><path fill="#603813" d="M 1211.394531 217.019531 C 1211.394531 217.972656 1211.300781 218.910156 1211.117188 219.84375 C 1210.933594 220.773438 1210.65625 221.679688 1210.292969 222.554688 C 1209.929688 223.433594 1209.484375 224.265625 1208.957031 225.058594 C 1208.429688 225.847656 1207.832031 226.578125 1207.160156 227.25 C 1206.488281 227.921875 1205.757812 228.519531 1204.96875 229.046875 C 1204.179688 229.574219 1203.347656 230.019531 1202.46875 230.382812 C 1201.59375 230.746094 1200.691406 231.023438 1199.757812 231.207031 C 1198.828125 231.390625 1197.886719 231.484375 1196.9375 231.484375 C 1195.988281 231.484375 1195.050781 231.390625 1194.117188 231.207031 C 1193.1875 231.023438 1192.28125 230.746094 1191.40625 230.382812 C 1190.527344 230.019531 1189.695312 229.574219 1188.90625 229.046875 C 1188.117188 228.519531 1187.386719 227.921875 1186.714844 227.25 C 1186.042969 226.578125 1185.445312 225.847656 1184.917969 225.058594 C 1184.390625 224.265625 1183.945312 223.433594 1183.582031 222.554688 C 1183.21875 221.679688 1182.945312 220.773438 1182.757812 219.84375 C 1182.574219 218.910156 1182.480469 217.972656 1182.480469 217.019531 C 1182.480469 216.070312 1182.574219 215.132812 1182.757812 214.199219 C 1182.945312 213.269531 1183.21875 212.363281 1183.582031 211.484375 C 1183.945312 210.609375 1184.390625 209.773438 1184.917969 208.984375 C 1185.445312 208.195312 1186.042969 207.464844 1186.714844 206.792969 C 1187.386719 206.121094 1188.117188 205.523438 1188.90625 204.996094 C 1189.695312 204.46875 1190.527344 204.023438 1191.40625 203.660156 C 1192.28125 203.296875 1193.1875 203.019531 1194.117188 202.835938 C 1195.050781 202.648438 1195.988281 202.558594 1196.9375 202.558594 C 1197.886719 202.558594 1198.828125 202.648438 1199.757812 202.835938 C 1200.691406 203.019531 1201.59375 203.296875 1202.46875 203.660156 C 1203.347656 204.023438 1204.179688 204.46875 1204.96875 204.996094 C 1205.757812 205.523438 1206.488281 206.121094 1207.160156 206.792969 C 1207.832031 207.464844 1208.429688 208.195312 1208.957031 208.984375 C 1209.484375 209.773438 1209.929688 210.609375 1210.292969 211.484375 C 1210.65625 212.363281 1210.933594 213.269531 1211.117188 214.199219 C 1211.300781 215.132812 1211.394531 216.070312 1211.394531 217.019531 Z M 1211.394531 217.019531 " fill-opacity="1" fill-rule="nonzero"/><path fill="#754c24" d="M 1211.394531 213.585938 C 1211.394531 214.535156 1211.300781 215.476562 1211.117188 216.40625 C 1210.933594 217.339844 1210.65625 218.242188 1210.292969 219.121094 C 1209.929688 219.996094 1209.484375 220.832031 1208.957031 221.621094 C 1208.429688 222.410156 1207.832031 223.140625 1207.160156 223.8125 C 1206.488281 224.484375 1205.757812 225.082031 1204.96875 225.613281 C 1204.179688 226.140625 1203.347656 226.585938 1202.46875 226.949219 C 1201.59375 227.3125 1200.691406 227.585938 1199.757812 227.769531 C 1198.828125 227.957031 1197.886719 228.050781 1196.9375 228.050781 C 1195.988281 228.050781 1195.050781 227.957031 1194.117188 227.769531 C 1193.1875 227.585938 1192.28125 227.3125 1191.40625 226.949219 C 1190.527344 226.585938 1189.695312 226.140625 1188.90625 225.613281 C 1188.117188 225.082031 1187.386719 224.484375 1186.714844 223.8125 C 1186.042969 223.140625 1185.445312 222.410156 1184.917969 221.621094 C 1184.390625 220.832031 1183.945312 219.996094 1183.582031 219.121094 C 1183.21875 218.242188 1182.945312 217.339844 1182.757812 216.40625 C 1182.574219 215.476562 1182.480469 214.535156 1182.480469 213.585938 C 1182.480469 212.636719 1182.574219 211.695312 1182.757812 210.761719 C 1182.945312 209.832031 1183.21875 208.925781 1183.582031 208.050781 C 1183.945312 207.171875 1184.390625 206.339844 1184.917969 205.550781 C 1185.445312 204.761719 1186.042969 204.03125 1186.714844 203.359375 C 1187.386719 202.6875 1188.117188 202.085938 1188.90625 201.558594 C 1189.695312 201.03125 1190.527344 200.585938 1191.40625 200.222656 C 1192.28125 199.859375 1193.1875 199.585938 1194.117188 199.398438 C 1195.050781 199.214844 1195.988281 199.121094 1196.9375 199.121094 C 1197.886719 199.121094 1198.828125 199.214844 1199.757812 199.398438 C 1200.691406 199.585938 1201.59375 199.859375 1202.46875 200.222656 C 1203.347656 200.585938 1204.179688 201.03125 1204.96875 201.558594 C 1205.757812 202.085938 1206.488281 202.6875 1207.160156 203.359375 C 1207.832031 204.03125 1208.429688 204.761719 1208.957031 205.550781 C 1209.484375 206.339844 1209.929688 207.171875 1210.292969 208.050781 C 1210.65625 208.925781 1210.933594 209.832031 1211.117188 210.761719 C 1211.300781 211.695312 1211.394531 212.636719 1211.394531 213.585938 Z M 1211.394531 213.585938 " fill-opacity="1" fill-rule="nonzero"/><path fill="#603813" d="M 1208.128906 213.640625 C 1208.128906 214.375 1208.054688 215.105469 1207.914062 215.824219 C 1207.769531 216.546875 1207.558594 217.246094 1207.277344 217.925781 C 1206.996094 218.605469 1206.648438 219.25 1206.242188 219.859375 C 1205.832031 220.472656 1205.371094 221.035156 1204.851562 221.554688 C 1204.332031 222.074219 1203.765625 222.539062 1203.15625 222.949219 C 1202.542969 223.355469 1201.898438 223.703125 1201.21875 223.984375 C 1200.542969 224.265625 1199.839844 224.476562 1199.121094 224.621094 C 1198.402344 224.761719 1197.671875 224.835938 1196.9375 224.835938 C 1196.203125 224.835938 1195.476562 224.761719 1194.753906 224.621094 C 1194.035156 224.476562 1193.335938 224.265625 1192.65625 223.984375 C 1191.976562 223.703125 1191.332031 223.355469 1190.722656 222.949219 C 1190.109375 222.539062 1189.546875 222.074219 1189.027344 221.554688 C 1188.507812 221.035156 1188.042969 220.472656 1187.636719 219.859375 C 1187.226562 219.25 1186.882812 218.605469 1186.601562 217.925781 C 1186.320312 217.246094 1186.109375 216.546875 1185.964844 215.824219 C 1185.820312 215.105469 1185.75 214.375 1185.75 213.640625 C 1185.75 212.90625 1185.820312 212.179688 1185.964844 211.457031 C 1186.109375 210.734375 1186.320312 210.035156 1186.601562 209.355469 C 1186.882812 208.679688 1187.226562 208.03125 1187.636719 207.421875 C 1188.042969 206.808594 1188.507812 206.246094 1189.027344 205.726562 C 1189.546875 205.207031 1190.109375 204.742188 1190.722656 204.332031 C 1191.332031 203.925781 1191.976562 203.578125 1192.65625 203.296875 C 1193.335938 203.015625 1194.035156 202.804688 1194.753906 202.660156 C 1195.476562 202.519531 1196.203125 202.445312 1196.9375 202.445312 C 1197.671875 202.445312 1198.402344 202.519531 1199.121094 202.660156 C 1199.839844 202.804688 1200.542969 203.015625 1201.21875 203.296875 C 1201.898438 203.578125 1202.542969 203.925781 1203.15625 204.332031 C 1203.765625 204.742188 1204.332031 205.207031 1204.851562 205.726562 C 1205.371094 206.246094 1205.832031 206.808594 1206.242188 207.421875 C 1206.648438 208.03125 1206.996094 208.679688 1207.277344 209.355469 C 1207.558594 210.035156 1207.769531 210.734375 1207.914062 211.457031 C 1208.054688 212.179688 1208.128906 212.90625 1208.128906 213.640625 Z M 1208.128906 213.640625 " fill-opacity="1" fill-rule="nonzero"/><path fill="#754c24" d="M 1199.265625 223.503906 C 1199.265625 224.835938 1198.210938 225.886719 1196.882812 225.886719 C 1195.554688 225.886719 1194.5 224.835938 1194.5 223.503906 L 1194.5 204.109375 C 1194.5 202.777344 1195.554688 201.726562 1196.882812 201.726562 C 1198.210938 201.726562 1199.265625 202.777344 1199.265625 204.109375 Z M 1199.265625 223.503906 " fill-opacity="1" fill-rule="nonzero"/><path fill="#e6e6e6" d="M 1152.625 285.347656 C 1151.574219 290.78125 1147.253906 294.992188 1141.769531 295.933594 C 1129.972656 297.929688 1106.539062 300.035156 1074.800781 300.035156 C 1043.117188 300.035156 1019.800781 297.984375 1007.945312 295.988281 C 1002.460938 295.046875 998.140625 290.835938 997.089844 285.40625 C 995.148438 275.207031 992.492188 256.257812 992.492188 228.160156 C 992.492188 199.898438 995.148438 180.890625 997.144531 170.75 C 998.195312 165.316406 1002.460938 161.105469 1007.890625 160.164062 C 1019.132812 158.167969 1041.347656 156.230469 1074.855469 156.230469 C 1108.425781 156.230469 1130.691406 158.167969 1141.878906 160.164062 C 1147.253906 161.105469 1151.574219 165.261719 1152.625 170.636719 C 1154.566406 180.5 1157.222656 199.121094 1157.222656 228.105469 C 1157.167969 256.808594 1154.566406 275.375 1152.625 285.347656 Z M 1152.625 285.347656 " fill-opacity="1" fill-rule="nonzero"/><path fill="#ffffff" d="M 1152.570312 170.636719 C 1151.90625 167.203125 1149.855469 164.210938 1147.085938 162.324219 C 1148.082031 163.765625 1148.804688 165.429688 1149.191406 167.257812 C 1151.128906 177.121094 1153.789062 195.742188 1153.789062 224.722656 C 1153.789062 253.484375 1151.1875 272.050781 1149.246094 281.96875 C 1148.195312 287.398438 1143.875 291.613281 1138.390625 292.554688 C 1126.59375 294.546875 1103.160156 296.65625 1071.421875 296.65625 C 1039.738281 296.65625 1016.421875 294.605469 1004.566406 292.609375 C 1002.574219 292.277344 1000.746094 291.5 999.195312 290.449219 C 1001.1875 293.386719 1004.34375 295.433594 1007.945312 296.042969 C 1019.800781 298.039062 1043.117188 300.089844 1074.800781 300.089844 C 1106.597656 300.089844 1129.972656 297.984375 1141.769531 295.988281 C 1147.253906 295.046875 1151.519531 290.835938 1152.625 285.40625 C 1154.5625 275.484375 1157.167969 256.921875 1157.167969 228.160156 C 1157.167969 199.121094 1154.507812 180.5 1152.570312 170.636719 Z M 1152.570312 170.636719 " fill-opacity="1" fill-rule="nonzero"/></svg>